<?xml version="1.0" encoding="iso-8859-1"?>
<!-- Generator: Adobe Illustrator 19.0.0, SVG Export Plug-In . SVG Version: 6.00 Build 0)  -->
<svg version="1.1" id="Capa_1" xmlns="http://www.w3.org/2000/svg" xmlns:xlink="http://www.w3.org/1999/xlink" x="0px" y="0px"
	 viewBox="0 0 396.002 396.002" style="enable-background:new 0 0 396.002 396.002;" xml:space="preserve">
	 <style type="text/css">
	 	<![CDATA[
      path {
        fill: #ff872e;
      }
    ]]>
    </style>
<g>
	<g>
		<path d="M232.993,0.201c-16.6,0-30,13.4-30,30c-0.1,12.8,7.9,24.2,20,28.3v39.5h20v-39.5c12.1-4.1,20.2-15.5,20.1-28.3
			C263.093,13.601,249.593,0.201,232.993,0.201z"/>
	</g>
</g>
<g>
	<g>
		<path d="M163.093,0.001c-16.6-0.1-30.1,13.3-30.2,29.9c0,0.1,0,0.2,0,0.3c-0.1,12.8,8,24.2,20.1,28.3v39.5h20v-39.5
			c12.1-4.1,20.1-15.6,20-28.3C193.093,13.601,179.694,0.101,163.093,0.001z"/>
	</g>
</g>
<g>
	<g>
		<path d="M383.493,230.401l-4.8-66c-2-26.1-23.8-46.3-50-46.4h-261.4c-26.2,0-48,20.3-50,46.4l-4.8,65.7c-0.3,4.8,2.7,9.1,7.2,10.4
			c0.1,0,0.3,0.1,0.4,0.1l22.5,7.6l5.8-54.7c2.2-23,21.6-40.6,44.8-40.5h209.6c23.2-0.1,42.6,17.5,44.8,40.6l5.7,54.2l23.1-7.1
			C380.893,239.401,383.893,235.101,383.493,230.401z"/>
	</g>
</g>
<g>
	<g>
		<path d="M344.194,351.801l-9.3-90.1l-7.1-66.1c-1.3-12.9-12.2-22.7-25.1-22.6h-209.5c-12.9-0.1-23.7,9.7-24.9,22.5l-7,66.5
			l-9.5,89.9c-0.1,1.3-0.2,2.5-0.2,3.8c0,22.2,17.9,40.2,40.1,40.3h212.6c11.3,0.1,22.1-4.8,29.7-13.2
			C341.694,374.401,345.493,363.201,344.194,351.801z"/>
	</g>
</g>
<g>
</g>
<g>
</g>
<g>
</g>
<g>
</g>
<g>
</g>
<g>
</g>
<g>
</g>
<g>
</g>
<g>
</g>
<g>
</g>
<g>
</g>
<g>
</g>
<g>
</g>
<g>
</g>
<g>
</g>
</svg>
