<?xml version="1.0" encoding="iso-8859-1"?>
<!-- Generator: Adobe Illustrator 19.0.0, SVG Export Plug-In . SVG Version: 6.00 Build 0)  -->
<svg version="1.1" id="Layer_1" xmlns="http://www.w3.org/2000/svg" xmlns:xlink="http://www.w3.org/1999/xlink" x="0px" y="0px"
	 viewBox="0 0 512 512" style="enable-background:new 0 0 512 512;" xml:space="preserve">
<g>
	<g>
		<g>
			<path d="M238.933,341.333c0,9.412,7.654,17.067,17.067,17.067c9.412,0,17.067-7.654,17.067-17.067
				c0-9.412-7.654-17.067-17.067-17.067C246.588,324.267,238.933,331.921,238.933,341.333z"/>
			<path d="M315.733,494.933H154.914c2.244-7.595,8.252-17.067,24.286-17.067h85.333c4.71,0,8.533-3.823,8.533-8.533
				s-3.823-8.533-8.533-8.533h-42.667v-42.667c0-4.71-3.823-8.533-8.533-8.533c-4.71,0-8.533,3.823-8.533,8.533V460.8h-25.6
				c-33.749,0-42.667,27.913-42.667,42.667c0,4.71,3.823,8.533,8.533,8.533h170.667c4.71,0,8.533-3.823,8.533-8.533
				S320.444,494.933,315.733,494.933z"/>
			<path d="M332.8,460.8h-25.6v-42.667c0-4.71-3.823-8.533-8.533-8.533s-8.533,3.823-8.533,8.533v51.2
				c0,4.71,3.823,8.533,8.533,8.533H332.8c4.71,0,8.533-3.823,8.533-8.533S337.51,460.8,332.8,460.8z"/>
			<path d="M298.667,298.667c0-4.71-3.823-8.533-8.533-8.533H42.667c-4.71,0-8.533,3.823-8.533,8.533s3.823,8.533,8.533,8.533
				h247.467C294.844,307.2,298.667,303.377,298.667,298.667z"/>
			<path d="M409.6,307.2c-18.825,0-34.133,15.309-34.133,34.133c0,18.825,15.309,34.133,34.133,34.133
				c18.825,0,34.133-15.309,34.133-34.133C443.733,322.509,428.425,307.2,409.6,307.2z M409.6,358.4
				c-9.412,0-17.067-7.654-17.067-17.067c0-9.412,7.654-17.067,17.067-17.067c9.412,0,17.067,7.654,17.067,17.067
				C426.667,350.746,419.012,358.4,409.6,358.4z"/>
			<path d="M409.6,238.933c-56.465,0-102.4,45.935-102.4,102.4c0,53.581,41.395,97.613,93.867,101.965v17.92
				c-41.182,4.087-58.086,36.941-58.837,38.434c-1.314,2.645-1.178,5.786,0.375,8.303c1.553,2.509,4.301,4.045,7.262,4.045h76.8
				c4.71,0,8.533-3.823,8.533-8.533s-3.823-8.533-8.533-8.533h-59.588c8.192-8.047,21.948-17.067,42.522-17.067
				c36.608,0,51.507,28.254,52.096,29.414c1.502,2.995,4.514,4.727,7.646,4.719c1.28,0,2.586-0.29,3.806-0.896
				c4.215-2.116,5.931-7.236,3.823-11.452c-0.751-1.493-17.655-34.347-58.837-38.434v-17.92
				C470.605,438.946,512,394.914,512,341.333C512,284.868,466.065,238.933,409.6,238.933z M409.6,426.667
				c-47.053,0-85.333-38.281-85.333-85.333S362.547,256,409.6,256s85.333,38.281,85.333,85.333S456.653,426.667,409.6,426.667z"/>
			<path d="M469.333,0H42.667C19.14,0,0,19.14,0,42.667v298.667c0,23.671,18.637,51.2,42.667,51.2h247.467
				c4.71,0,8.533-3.823,8.533-8.533s-3.823-8.533-8.533-8.533H42.667c-13.542,0-25.6-19.089-25.6-34.133V42.667
				c0-14.114,11.486-25.6,25.6-25.6h426.667c14.114,0,25.6,11.486,25.6,25.6V256c0,4.71,3.823,8.533,8.533,8.533S512,260.71,512,256
				V42.667C512,19.14,492.86,0,469.333,0z"/>
			<path d="M452.267,85.333c2.185,0,4.369-0.836,6.033-2.5c3.337-3.337,3.337-8.73,0-12.066L441.233,53.7
				c-3.337-3.337-8.73-3.337-12.066,0c-3.336,3.337-3.336,8.73,0,12.066l17.067,17.067
				C447.898,84.497,450.082,85.333,452.267,85.333z"/>
			<path d="M377.967,53.7c-3.336,3.337-3.336,8.73,0,12.066l68.267,68.267c1.664,1.664,3.849,2.5,6.033,2.5
				c2.185,0,4.369-0.836,6.033-2.5c3.337-3.337,3.337-8.73,0-12.066L390.033,53.7C386.697,50.364,381.303,50.364,377.967,53.7z"/>
		</g>
	</g>
</g>
<g>
</g>
<g>
</g>
<g>
</g>
<g>
</g>
<g>
</g>
<g>
</g>
<g>
</g>
<g>
</g>
<g>
</g>
<g>
</g>
<g>
</g>
<g>
</g>
<g>
</g>
<g>
</g>
<g>
</g>
</svg>
